<svg version="1.1" xmlns="http://www.w3.org/2000/svg" xmlns:xlink="http://www.w3.org/1999/xlink" width="550px" height="550px" viewBox="0,0,256,256"><g fill="#783d3d" fill-rule="nonzero" stroke="none" stroke-width="1" stroke-linecap="butt" stroke-linejoin="miter" stroke-miterlimit="10" stroke-dasharray="" stroke-dashoffset="0" font-family="none" font-weight="none" font-size="none" text-anchor="none" style="mix-blend-mode: normal"><g transform="scale(0.46545,0.46545)"><g id="surface1"><path d="M240.625,17.1875v17.1875h-68.75v34.375h-68.75v34.375h-68.75v34.375h68.75v34.375h-103.125v275h34.375v34.375h103.125v34.375h68.75v34.375h34.375v-309.375h-68.75v-34.375h-68.75v-34.375h103.125v34.375h137.5v-34.375h103.125v34.375h-68.75v34.375h-68.75v309.375h34.375v-34.375h68.75v-34.375h103.125v-34.375h34.375v-275h-103.125v-34.375h68.75v-34.375h-68.75v-34.375h-68.75v-34.375h-68.75v-34.375h-68.75zM240.625,17.1875"></path></g></g></g></svg>